<svg width="16" height="16" viewBox="0 0 16 16" fill="none" xmlns="http://www.w3.org/2000/svg">
<g id="moon / 24 / Outline">
<path id="Vector" d="M14.4266 8.66669C14.3304 8.58714 14.2138 8.53622 14.09 8.51972C13.9663 8.50322 13.8403 8.5218 13.7266 8.57335C13.0217 8.89594 12.2552 9.06198 11.48 9.06002C10.0459 9.05829 8.67062 8.48965 7.65406 7.47809C6.63751 6.46653 6.0621 5.09409 6.0533 3.66002C6.05634 3.21057 6.11228 2.76305 6.21997 2.32669C6.24282 2.21038 6.23425 2.09008 6.19514 1.97819C6.15603 1.8663 6.08779 1.76685 5.99746 1.69011C5.90713 1.61336 5.79797 1.56208 5.68123 1.54156C5.56449 1.52104 5.44439 1.53201 5.3333 1.57335C4.28818 2.04329 3.37968 2.77119 2.69314 3.68867C2.0066 4.60616 1.56455 5.6831 1.40853 6.81834C1.25251 7.95358 1.38764 9.10985 1.80121 10.1785C2.21479 11.2472 2.89324 12.1932 3.77283 12.9277C4.65243 13.6621 5.70429 14.1609 6.8296 14.3772C7.95491 14.5935 9.11674 14.5202 10.2059 14.1642C11.2951 13.8081 12.2759 13.1811 13.0562 12.3419C13.8365 11.5027 14.3907 10.4789 14.6666 9.36669C14.7002 9.23935 14.6954 9.10491 14.6527 8.98033C14.61 8.85575 14.5313 8.74661 14.4266 8.66669ZM8.0933 13.1267C6.97447 13.1188 5.88544 12.7653 4.9753 12.1145C4.06516 11.4638 3.37841 10.5476 3.00909 9.49144C2.63977 8.43529 2.60593 7.29081 2.91219 6.21469C3.21846 5.13857 3.84987 4.18342 4.71997 3.48002V3.66002C4.72173 5.45234 5.43451 7.17075 6.70188 8.43811C7.96924 9.70548 9.68765 10.4183 11.48 10.42C11.9506 10.4217 12.42 10.3726 12.88 10.2734C12.4199 11.1437 11.7309 11.8719 10.8874 12.3794C10.0439 12.887 9.07776 13.1546 8.0933 13.1534V13.1267Z" fill="#FEFEFE"/>
</g>
</svg>
