<svg width="86" height="102" viewBox="0 0 86 102" fill="none" xmlns="http://www.w3.org/2000/svg">
<g filter="url(#filter0_f_2313_10594)">
<path d="M6.73608 75.3055C6.73608 75.3055 25.1752 83.9759 32.4902 87.3035C38.2844 89.9392 68.1197 98.3706 71.674 95.9739C75.2284 93.5773 83.0759 86.9995 80.4852 82.493C77.8944 77.9864 64.2691 69.8947 57.7528 68.7124C51.2365 67.5301 32.604 72.9046 32.604 72.9046L16.7109 75.6339L6.73608 75.3055Z" fill="url(#paint0_linear_2313_10594)"/>
</g>
<path d="M20.5475 36.621L-6.05742e-05 51.7295L2.73929 45.3026L4.99938 39.0505L26.0461 25.8645L20.5475 36.621Z" fill="#EA9043"/>
<path d="M4.99268 39.0593L25.9121 25.9634V61.6795L6.73596 75.1241L4.99268 39.0593Z" fill="#A55849"/>
<path d="M25.9121 25.9634L57.9886 33.4677V69.1969L25.9121 61.6925V25.9634Z" fill="#D2724E"/>
<path d="M4.99268 39.0576L37.7665 46.7168L37.7107 82.4121L6.73596 75.3204L4.99268 39.0576Z" fill="#F29648"/>
<path d="M37.457 46.6705L57.7431 33.4722L57.9966 69.2263L37.7106 82.4122L37.457 46.6705Z" fill="#D2724E"/>
<mask id="mask0_2313_10594" style="mask-type:luminance" maskUnits="userSpaceOnUse" x="37" y="33" width="21" height="50">
<path d="M37.0686 46.7297L57.988 33.6338V69.3499L37.0686 82.4458V46.7297Z" fill="white"/>
</mask>
<g mask="url(#mask0_2313_10594)">
<rect x="44.8389" y="31.6719" width="6.57468" height="54.7647" fill="#A55847"/>
</g>
<path d="M46.723 57.3674L66.8589 44.1044L57.8185 33.4103L37.4571 46.6578L46.723 57.3674Z" fill="#EA9043"/>
<path fill-rule="evenodd" clip-rule="evenodd" d="M53.1078 0.0127238C52.3731 0.237332 37.1612 9.33885 37.1612 9.33885L41.6003 9.66987L44.7549 13.1562C44.7549 13.1562 53.8425 -0.211884 53.1078 0.0127238Z" fill="#D2724E"/>
<mask id="mask1_2313_10594" style="mask-type:luminance" maskUnits="userSpaceOnUse" x="37" y="0" width="17" height="14">
<path fill-rule="evenodd" clip-rule="evenodd" d="M53.1078 0.0127238C52.3731 0.237332 37.1612 9.33885 37.1612 9.33885L41.6003 9.66987L44.7549 13.1562C44.7549 13.1562 53.8425 -0.211884 53.1078 0.0127238Z" fill="white"/>
</mask>
<g mask="url(#mask1_2313_10594)">
<path fill-rule="evenodd" clip-rule="evenodd" d="M41.6002 9.66987L53.1077 0.0127176L44.7548 13.1562L41.6002 9.66987Z" fill="#FEB96A"/>
</g>
<path fill-rule="evenodd" clip-rule="evenodd" d="M50.8235 10.5594L45.4891 10.0019L53.1137 0.106844L50.8235 10.5594Z" fill="#D2724E"/>
<path fill-rule="evenodd" clip-rule="evenodd" d="M41.0016 17.1521C41.3349 16.4468 41.6705 15.7167 42.0083 14.9619L42.5599 15.2088C42.2204 15.9673 41.8831 16.7012 41.548 17.4103L41.0016 17.1521ZM38.831 21.455C39.1993 20.7754 39.5706 20.0637 39.945 19.3197L40.4848 19.5914C40.1078 20.3407 39.7336 21.0579 39.3623 21.743L38.831 21.455ZM37.6465 23.5483C37.217 24.2722 36.7919 24.9506 36.3712 25.5836L36.8744 25.9181C37.3011 25.2764 37.7317 24.5892 38.1663 23.8567L37.6465 23.5483ZM33.4226 29.3487C33.9323 28.82 34.4496 28.2167 34.9744 27.5387L35.4523 27.9086C34.9146 28.6033 34.3832 29.2231 33.8577 29.7682L33.4226 29.3487ZM31.6475 30.9102C30.9411 31.4164 30.2532 31.7665 29.5842 31.9623L29.7539 32.5423C30.492 32.3263 31.2404 31.9455 31.9996 31.4014L31.6475 30.9102ZM25.3224 30.9741C25.987 31.51 26.6627 31.8609 27.3502 32.0302L27.2057 32.6171C26.4282 32.4256 25.6737 32.0337 24.9431 31.4445L25.3224 30.9741ZM23.6936 29.2574C23.6562 29.2084 23.6188 29.1587 23.5814 29.1085C23.095 28.4537 22.7416 27.8322 22.5162 27.2452L21.952 27.4618C22.1982 28.1031 22.5786 28.772 23.0963 29.4689C23.1353 29.5213 23.1743 29.5731 23.2134 29.6243L23.6936 29.2574ZM23.5487 23.178C22.8959 23.7172 22.4761 24.3361 22.3048 25.0265L21.7183 24.8811C21.9226 24.0572 22.4162 23.3296 23.1639 22.7121L23.5487 23.178ZM25.5676 22.0426C26.2476 21.777 27.0123 21.5604 27.8414 21.397L27.7245 20.8041C26.8616 20.9742 26.0627 21.2004 25.3478 21.4796L25.5676 22.0426ZM32.5728 21.0514C31.7688 21.0228 30.9675 21.036 30.1873 21.091L30.1448 20.4881C30.9465 20.4317 31.7691 20.4181 32.5943 20.4474L32.5728 21.0514ZM34.9784 21.2632C35.7884 21.3785 36.5721 21.5365 37.3123 21.7345L37.4685 21.1507C36.7044 20.9463 35.897 20.7836 35.0635 20.6649L34.9784 21.2632ZM41.5633 23.7261C41.0107 23.2764 40.3364 22.8727 39.5581 22.5219L39.8064 21.9709C40.6303 22.3422 41.3491 22.7727 41.9448 23.2573L41.5633 23.7261ZM43.0035 25.5412C43.1493 25.88 43.2426 26.2328 43.2819 26.5999C43.3235 26.9882 43.3379 27.3785 43.3251 27.7708L43.9291 27.7905C43.9428 27.3701 43.9274 26.9518 43.8828 26.5355C43.837 26.1079 43.7282 25.6963 43.5586 25.3023L43.0035 25.5412ZM42.0356 32.2738C42.4246 31.5402 42.7256 30.8142 42.9391 30.096L43.5184 30.2682C43.2932 31.0258 42.9768 31.7887 42.5696 32.5569L42.0356 32.2738ZM40.7559 34.2943C40.3088 34.9032 39.8033 35.517 39.2395 36.1356L39.6861 36.5427C40.264 35.9087 40.7829 35.2785 41.243 34.652L40.7559 34.2943ZM35.7692 39.4055C36.4106 38.8744 37.0113 38.3465 37.5712 37.8218L37.9844 38.2628C37.4153 38.7961 36.8054 39.3322 36.1546 39.871L35.7692 39.4055ZM33.8646 40.9019C33.2434 41.3667 32.5917 41.8338 31.9094 42.3033L32.252 42.8011C32.9407 42.3272 33.5989 41.8554 34.2266 41.3858L33.8646 40.9019ZM28.6245 44.4364C29.0538 44.1721 29.4738 43.9085 29.8844 43.6457L30.2102 44.1546C29.7966 44.4194 29.3736 44.6849 28.9413 44.951L28.6245 44.4364Z" fill="#FEB96A"/>
<defs>
<filter id="filter0_f_2313_10594" x="1.73608" y="63.5425" width="84.2639" height="37.8555" filterUnits="userSpaceOnUse" color-interpolation-filters="sRGB">
<feFlood flood-opacity="0" result="BackgroundImageFix"/>
<feBlend mode="normal" in="SourceGraphic" in2="BackgroundImageFix" result="shape"/>
<feGaussianBlur stdDeviation="2.5" result="effect1_foregroundBlur_2313_10594"/>
</filter>
<linearGradient id="paint0_linear_2313_10594" x1="7.75533" y1="66.8468" x2="32.4098" y2="115.267" gradientUnits="userSpaceOnUse">
<stop stop-color="#454749"/>
<stop offset="1" stop-color="#454749" stop-opacity="0.01"/>
</linearGradient>
</defs>
</svg>
