<svg width="16" height="16" viewBox="0 0 16 16" fill="none" xmlns="http://www.w3.org/2000/svg">
<g id="Medium Brightness / 24 / Outline">
<path id="Vector" d="M2.00004 7.33334C1.86819 7.33334 1.73929 7.37244 1.62966 7.4457C1.52003 7.51895 1.43458 7.62307 1.38412 7.74489C1.33366 7.86671 1.32046 8.00075 1.34618 8.13007C1.37191 8.25939 1.4354 8.37818 1.52864 8.47142C1.62187 8.56465 1.74066 8.62814 1.86998 8.65387C1.9993 8.67959 2.13335 8.66639 2.25516 8.61593C2.37698 8.56547 2.4811 8.48002 2.55435 8.37039C2.62761 8.26076 2.66671 8.13187 2.66671 8.00001C2.66671 7.8232 2.59647 7.65363 2.47145 7.52861C2.34642 7.40358 2.17685 7.33334 2.00004 7.33334ZM3.28671 11.7733C3.19308 11.8664 3.12919 11.9852 3.10314 12.1146C3.0771 12.2441 3.09007 12.3783 3.14041 12.5004C3.19075 12.6224 3.2762 12.7268 3.38592 12.8002C3.49563 12.8736 3.62468 12.9128 3.75671 12.9128C3.88873 12.9128 4.01778 12.8736 4.1275 12.8002C4.23722 12.7268 4.32266 12.6224 4.37301 12.5004C4.42335 12.3783 4.43632 12.2441 4.41027 12.1146C4.38423 11.9852 4.32034 11.8664 4.22671 11.7733C4.1018 11.6492 3.93283 11.5795 3.75671 11.5795C3.58058 11.5795 3.41162 11.6492 3.28671 11.7733ZM4.22671 4.22668C4.32034 4.1336 4.38423 4.01482 4.41027 3.88539C4.43632 3.75596 4.42335 3.62172 4.37301 3.49967C4.32266 3.37762 4.23722 3.27326 4.1275 3.19983C4.01778 3.12641 3.88873 3.08721 3.75671 3.08721C3.62468 3.08721 3.49563 3.12641 3.38592 3.19983C3.2762 3.27326 3.19075 3.37762 3.14041 3.49967C3.09007 3.62172 3.0771 3.75596 3.10314 3.88539C3.12919 4.01482 3.19308 4.1336 3.28671 4.22668C3.41162 4.35084 3.58058 4.42054 3.75671 4.42054C3.93283 4.42054 4.1018 4.35084 4.22671 4.22668ZM8.00004 2.66668C8.1319 2.66668 8.26079 2.62758 8.37042 2.55432C8.48005 2.48107 8.5655 2.37695 8.61596 2.25513C8.66642 2.13332 8.67962 1.99927 8.6539 1.86995C8.62817 1.74063 8.56468 1.62184 8.47145 1.52861C8.37821 1.43537 8.25942 1.37188 8.1301 1.34615C8.00078 1.32043 7.86674 1.33363 7.74492 1.38409C7.6231 1.43455 7.51898 1.52 7.44573 1.62963C7.37247 1.73926 7.33337 1.86816 7.33337 2.00001C7.33337 2.17682 7.40361 2.34639 7.52864 2.47142C7.65366 2.59644 7.82323 2.66668 8.00004 2.66668ZM11.7734 11.7733C11.6797 11.8664 11.6159 11.9852 11.5898 12.1146C11.5638 12.2441 11.5767 12.3783 11.6271 12.5004C11.6774 12.6224 11.7629 12.7268 11.8726 12.8002C11.9823 12.8736 12.1114 12.9128 12.2434 12.9128C12.3754 12.9128 12.5044 12.8736 12.6142 12.8002C12.7239 12.7268 12.8093 12.6224 12.8597 12.5004C12.91 12.3783 12.923 12.2441 12.8969 12.1146C12.8709 11.9852 12.807 11.8664 12.7134 11.7733C12.5885 11.6492 12.4195 11.5795 12.2434 11.5795C12.0672 11.5795 11.8983 11.6492 11.7734 11.7733ZM14 7.33334C13.8682 7.33334 13.7393 7.37244 13.6297 7.4457C13.52 7.51895 13.4346 7.62307 13.3841 7.74489C13.3337 7.86671 13.3205 8.00075 13.3462 8.13007C13.3719 8.25939 13.4354 8.37818 13.5286 8.47142C13.6219 8.56465 13.7407 8.62814 13.87 8.65387C13.9993 8.67959 14.1333 8.66639 14.2552 8.61593C14.377 8.56547 14.4811 8.48002 14.5544 8.37039C14.6276 8.26076 14.6667 8.13187 14.6667 8.00001C14.6667 7.8232 14.5965 7.65363 14.4714 7.52861C14.3464 7.40358 14.1769 7.33334 14 7.33334ZM11.7734 3.28668C11.6797 3.37975 11.6159 3.49853 11.5898 3.62796C11.5638 3.75739 11.5767 3.89164 11.6271 4.01369C11.6774 4.13574 11.7629 4.24009 11.8726 4.31352C11.9823 4.38695 12.1114 4.42615 12.2434 4.42615C12.3754 4.42615 12.5044 4.38695 12.6142 4.31352C12.7239 4.24009 12.8093 4.13574 12.8597 4.01369C12.91 3.89164 12.923 3.75739 12.8969 3.62796C12.8709 3.49853 12.807 3.37975 12.7134 3.28668C12.5885 3.16251 12.4195 3.09282 12.2434 3.09282C12.0672 3.09282 11.8983 3.16251 11.7734 3.28668ZM8.00004 13.3333C7.86819 13.3333 7.73929 13.3724 7.62966 13.4457C7.52003 13.519 7.43458 13.6231 7.38412 13.7449C7.33366 13.8667 7.32046 14.0008 7.34618 14.1301C7.37191 14.2594 7.4354 14.3782 7.52864 14.4714C7.62187 14.5647 7.74066 14.6281 7.86998 14.6539C7.9993 14.6796 8.13335 14.6664 8.25516 14.6159C8.37698 14.5655 8.4811 14.48 8.55435 14.3704C8.62761 14.2608 8.66671 14.1319 8.66671 14C8.66671 13.8232 8.59647 13.6536 8.47145 13.5286C8.34642 13.4036 8.17685 13.3333 8.00004 13.3333ZM8.00004 4.00001C7.20892 4.00001 6.43556 4.23461 5.77776 4.67413C5.11996 5.11366 4.60727 5.73837 4.30452 6.46928C4.00177 7.20018 3.92256 8.00445 4.0769 8.78037C4.23124 9.5563 4.6122 10.269 5.17161 10.8284C5.73102 11.3878 6.44376 11.7688 7.21968 11.9232C7.9956 12.0775 8.79987 11.9983 9.53077 11.6955C10.2617 11.3928 10.8864 10.8801 11.3259 10.2223C11.7654 9.5645 12 8.79114 12 8.00001C12 6.93915 11.5786 5.92173 10.8285 5.17158C10.0783 4.42144 9.06091 4.00001 8.00004 4.00001ZM8.00004 10.6667C7.47262 10.6667 6.95705 10.5103 6.51852 10.2173C6.07999 9.92425 5.7382 9.50777 5.53636 9.0205C5.33453 8.53323 5.28172 7.99705 5.38461 7.47977C5.48751 6.96249 5.74148 6.48733 6.11442 6.11439C6.48736 5.74145 6.96252 5.48748 7.4798 5.38458C7.99708 5.28169 8.53326 5.3345 9.02053 5.53633C9.5078 5.73817 9.92428 6.07996 10.2173 6.51849C10.5103 6.95702 10.6667 7.47259 10.6667 8.00001C10.6667 8.70725 10.3858 9.38553 9.88566 9.88563C9.38556 10.3857 8.70728 10.6667 8.00004 10.6667Z" fill="#75787B"/>
</g>
</svg>
